<?xml version="1.0" standalone="no"?>
<!DOCTYPE svg PUBLIC "-//W3C//DTD SVG 20010904//EN"
 "http://www.w3.org/TR/2001/REC-SVG-20010904/DTD/svg10.dtd">
<svg version="1.0" xmlns="http://www.w3.org/2000/svg"
 width="433.000000pt" height="296.000000pt" viewBox="0 0 433.000000 296.000000"
 preserveAspectRatio="xMidYMid meet">

<g transform="translate(0.000000,296.000000) scale(0.100000,-0.100000)"
fill="#fff" stroke="none">
<path d="M60 1485 l0 -1395 2100 0 2100 0 0 1395 0 1395 -2100 0 -2100 0 0
-1395z m1012 698 c36 -35 38 -40 38 -100 l0 -63 -54 0 -55 0 -3 43 -3 42 -55
0 -55 0 0 -65 0 -65 70 -3 c67 -3 72 -5 113 -45 l42 -41 0 -100 0 -100 -42
-43 -42 -43 -88 0 -89 0 -41 39 c-38 35 -42 43 -46 100 l-4 61 59 0 59 0 2
-32 c4 -44 11 -50 68 -46 l49 3 3 53 c4 73 -6 82 -86 82 -64 0 -68 1 -109 42
l-43 42 0 95 0 95 42 43 42 43 95 0 95 0 38 -37z m238 -12 c0 -28 -4 -53 -10
-56 -6 -4 -10 -82 -10 -200 0 -118 4 -196 10 -200 6 -3 10 -31 10 -61 l0 -55
-72 3 -73 3 -3 44 c-2 24 2 49 7 54 14 14 15 403 1 412 -5 3 -10 28 -10 56 l0
49 75 0 75 0 0 -49z m420 -16 l0 -65 -50 0 c-27 0 -50 5 -50 10 0 6 -5 10 -11
10 -9 0 -11 -68 -7 -255 l5 -256 -71 3 -71 3 -3 44 c-2 24 2 49 7 54 7 7 11
82 11 209 0 181 -5 220 -25 188 -3 -5 -28 -10 -56 -10 l-49 0 0 65 0 65 185 0
185 0 0 -65z m380 0 l0 -65 -49 0 c-28 0 -53 5 -56 10 -3 6 -24 10 -46 10
l-39 0 0 -70 0 -70 70 0 70 0 0 -55 0 -55 -70 0 -70 0 0 -71 0 -70 96 7 95 7
-3 -64 -3 -64 -157 -3 -158 -3 0 55 c0 30 5 58 10 61 6 4 10 82 10 200 0 118
-4 196 -10 200 -5 3 -10 28 -10 56 l0 49 160 0 160 0 0 -65z m517 23 c39 -40
41 -46 39 -98 l-1 -55 -55 0 -55 0 -5 40 -5 40 -55 0 -55 0 0 -65 0 -65 75 -3
c73 -3 76 -4 118 -45 l42 -41 0 -95 0 -95 -47 -48 -47 -48 -85 0 -85 0 -43 42
c-41 40 -43 45 -43 100 l0 58 54 0 55 0 3 -37 3 -38 58 -3 58 -3 -3 68 -3 68
-75 3 c-71 3 -77 5 -112 39 l-38 37 0 105 0 105 37 38 37 38 96 0 96 0 41 -42z
m413 -23 l0 -65 -49 0 c-28 0 -53 5 -56 10 -3 6 -24 10 -46 10 l-39 0 0 -70 0
-70 70 0 70 0 0 -55 0 -55 -70 0 -70 0 0 -71 0 -70 96 7 95 7 -3 -64 -3 -64
-157 -3 -158 -3 0 55 c0 30 5 58 10 61 6 4 10 82 10 200 0 118 -4 196 -10 200
-5 3 -10 28 -10 56 l0 49 160 0 160 0 0 -65z m234 -47 c22 -60 43 -108 46
-108 3 0 25 50 48 110 l44 110 69 0 69 0 0 -49 c0 -28 -4 -53 -10 -56 -14 -9
-14 -405 1 -405 6 0 9 -21 7 -52 l-3 -53 -72 -3 -73 -3 0 55 c0 30 5 56 10 58
7 2 10 42 8 108 l-3 105 -24 -62 -23 -63 -48 0 -47 0 -24 63 -24 62 -3 -99
c-2 -59 1 -103 8 -110 5 -5 10 -34 10 -63 l0 -54 -72 3 -73 3 -3 53 c-2 31 1
52 7 52 15 0 15 396 1 405 -5 3 -10 29 -10 56 l0 50 71 -3 72 -3 41 -107z
m-2134 -713 l0 -75 -59 0 c-33 0 -63 5 -66 10 -3 6 -26 10 -51 10 l-44 0 0
-85 0 -85 80 0 80 0 0 -65 0 -65 -80 0 -80 0 0 -80 0 -80 44 0 c25 0 48 5 51
10 3 6 33 10 66 10 l59 0 0 -75 0 -75 -190 0 -190 0 0 54 c0 35 5 58 15 66 13
10 15 50 15 240 0 190 -2 230 -15 240 -10 8 -15 31 -15 66 l0 54 190 0 190 0
0 -75z m297 -115 l72 -185 1 122 c0 71 -4 124 -10 128 -5 3 -10 33 -10 66 l0
59 85 0 85 0 0 -59 c0 -33 -4 -63 -10 -66 -6 -4 -10 -115 -10 -301 l0 -294
-69 0 -68 0 -68 175 c-38 97 -72 178 -77 181 -4 3 -8 -46 -8 -109 0 -90 3
-117 15 -127 10 -8 15 -31 15 -66 l0 -54 -90 0 -90 0 0 54 c0 30 5 58 10 61 6
4 10 95 10 240 0 145 -4 236 -10 240 -5 3 -10 33 -10 66 l0 60 82 -3 83 -3 72
-185z m665 143 l48 -47 0 -135 c0 -132 -1 -135 -26 -162 l-27 -28 23 -83 c12
-46 28 -90 36 -99 8 -9 14 -37 14 -67 l0 -52 -91 0 -92 0 5 83 c3 48 1 101 -6
127 -12 45 -12 45 -59 48 l-47 3 0 -70 c0 -41 4 -71 10 -71 6 0 10 -27 10 -60
l0 -60 -85 0 -85 0 0 59 c0 33 5 63 10 66 6 4 10 93 10 235 0 142 -4 231 -10
235 -5 3 -10 33 -10 66 l0 59 162 0 162 0 48 -47z m502 -3 l46 -49 0 -263 0
-262 -47 -48 -47 -48 -120 0 -120 0 -48 47 -48 47 0 265 0 265 47 48 47 48
122 0 121 0 47 -50z m276 -9 c0 -33 -4 -63 -10 -66 -6 -4 -10 -93 -10 -236 l0
-229 34 0 c19 0 38 5 41 10 3 6 33 10 66 10 l59 0 0 -75 0 -75 -175 0 -175 0
0 59 c0 33 5 63 10 66 6 4 10 93 10 235 0 142 -4 231 -10 235 -5 3 -10 33 -10
66 l0 59 85 0 85 0 0 -59z m622 12 l48 -47 0 -265 0 -265 -47 -48 -47 -48
-120 0 -120 0 -48 47 -48 47 0 265 0 265 47 48 47 48 120 0 120 0 48 -47z"/>
<path d="M1880 1245 l0 -96 68 3 67 3 0 90 0 90 -67 3 -68 3 0 -96z"/>
<path d="M2355 1328 c-3 -8 -4 -110 -3 -228 l3 -215 75 0 c69 0 74 2 80 23 3
12 3 114 0 225 l-5 202 -73 3 c-53 2 -74 -1 -77 -10z"/>
<path d="M3262 1328 c-19 -19 -17 -422 2 -437 9 -7 41 -11 83 -9 l68 3 3 214
c2 149 -1 218 -9 227 -14 18 -130 19 -147 2z"/>
<path d="M1083 3 c599 -2 1575 -2 2170 0 595 1 106 2 -1088 2 -1194 0 -1680
-1 -1082 -2z"/>
</g>
</svg>
